<?xml version="1.0" encoding="UTF-8"?>
<svg width="48px" height="52px" viewBox="0 0 48 52" version="1.1" xmlns="http://www.w3.org/2000/svg" xmlns:xlink="http://www.w3.org/1999/xlink">
    <!-- Generator: Sketch 60 (88103) - https://sketch.com -->
    <title>Icons / Woman</title>
    <desc>Created with Sketch.</desc>
    <defs>
        <filter x="-11.8%" y="-55.7%" width="123.6%" height="211.3%" filterUnits="objectBoundingBox" id="filter-1">
            <feOffset dx="0" dy="0" in="SourceAlpha" result="shadowOffsetOuter1"></feOffset>
            <feGaussianBlur stdDeviation="7.5" in="shadowOffsetOuter1" result="shadowBlurOuter1"></feGaussianBlur>
            <feColorMatrix values="0 0 0 0 0   0 0 0 0 0   0 0 0 0 0  0 0 0 0.15 0" type="matrix" in="shadowBlurOuter1" result="shadowMatrixOuter1"></feColorMatrix>
            <feMerge>
                <feMergeNode in="shadowMatrixOuter1"></feMergeNode>
                <feMergeNode in="SourceGraphic"></feMergeNode>
            </feMerge>
        </filter>
    </defs>
    <g id="KB-Mobile-1.0" stroke="none" stroke-width="1" fill="none" fill-rule="evenodd">
        <g id="Landing" transform="translate(-204.000000, -354.000000)" fill="#FFFFFF">
            <g id="Group-2" transform="translate(35.000000, 355.000000)">
                <g id="W-button" filter="url(#filter-1)">
                    <g id="Icons-/-Woman" transform="translate(167.000000, 0.000000)">
                        <g id="Group" transform="translate(16.250000, 13.650000)">
                            <path d="M7.39289781,13.65 L9.07716008,17.7598106 C9.36625234,18.4653283 10.3199842,18.5011426 10.6705267,17.8520988 L10.705719,17.7799371 L12.5147327,13.65 L13.0016123,13.65 C16.2879187,13.65 18.9591309,16.3001405 19.0393223,19.5969107 L19.0411765,19.7495212 L19.0411765,23.8664271 C19.0411765,24.279284 18.7073652,24.6139706 18.2955882,24.6139706 C17.9080334,24.6139706 17.5895417,24.3175008 17.5534131,23.9384206 L17.55,23.8664271 L17.55,19.7495212 C17.55,17.4130859 15.8314621,15.4848751 13.6064936,15.185464 L13.4775767,15.1700061 L12.0709923,18.3812064 C11.2402093,20.2771994 8.59391702,20.2790302 7.74250277,18.430652 L7.69786374,18.3279967 L6.39729426,15.1544445 L6.26827145,15.1645851 C3.99780022,15.3757691 2.20852499,17.2768714 2.14303416,19.6166224 L2.14117647,19.7495212 L2.14117647,23.8664271 C2.14117647,24.279284 1.80736525,24.6139706 1.39558824,24.6139706 C1.0080334,24.6139706 0.689541686,24.3175008 0.653413093,23.9384206 L0.65,23.8664271 L0.65,19.7495212 C0.65,16.4333289 3.27141973,13.732943 6.53833241,13.6518745 L6.68956414,13.65 L7.39289781,13.65 Z M9.90294118,0 C12.9085982,0 15.3495588,2.35306627 15.3495588,5.2615203 L15.3495588,10.2645707 C15.3495588,11.0130369 16.0080627,11.6320261 16.835,11.6320261 C17.6324038,11.6320261 18.2731903,11.0564609 18.3179437,10.3442458 L18.3238411,10.1945556 C18.3598308,9.82589213 18.6770975,9.53756906 19.0631618,9.53756906 C19.473355,9.53756906 19.8058824,9.86305877 19.8058824,10.2645707 C19.8058824,11.8295275 18.4691687,13.0860294 16.835,13.0860294 C15.5589009,13.0860294 14.4641847,12.3198364 14.0457158,11.2388825 C13.0777726,12.3336722 11.650919,13.0409755 10.0470832,13.0841583 L9.90294118,13.0860294 C8.24505893,13.0860294 6.75898474,12.3701124 5.7595926,11.2399642 C5.34104405,12.3202938 4.24660051,13.0860294 2.97088235,13.0860294 C1.33671368,13.0860294 -8.52651283e-13,11.8295275 -8.52651283e-13,10.2645707 C-8.52651283e-13,9.86305877 0.332527334,9.53756906 0.742720588,9.53756906 C1.12878483,9.53756906 1.44605157,9.82589213 1.48204121,10.1945556 L1.48793864,10.3442458 C1.53269201,11.0564609 2.17347855,11.6320261 2.97088235,11.6320261 C3.76828616,11.6320261 4.4090727,11.0564609 4.45382607,10.3442458 L4.45632353,10.2645707 L4.45632353,5.2615203 C4.45632353,2.35306627 6.89728415,0 9.90294118,0 Z M13.7933824,5.65882353 L13.6564303,5.75013099 C11.1730773,7.34824335 8.54264521,7.61376923 6.14131017,7.09234526 L6.0125,7.06319061 L6.0125,7.87345376 C6.0125,9.96850877 7.75174526,11.6713235 9.89291283,11.6713235 L10.014406,11.6697318 C12.1179237,11.6121627 13.7933824,9.92812854 13.7933824,7.87345376 L13.7933824,5.65882353 Z M10.0206793,1.41470588 C7.80462394,1.41470588 6.01293976,3.20906904 6.01293976,5.41684931 L6.0125,5.6812373 L6.20146279,5.73175811 C6.23420466,5.74006765 6.26756331,5.74831188 6.30152782,5.75647575 C8.46063578,6.27544962 10.8348517,6.06213858 13.0706196,4.59031633 C13.2583591,4.46672602 13.4438829,4.33464358 13.6271008,4.19387156 L13.7933824,4.06343167 C13.2380879,2.52022033 11.760112,1.41470588 10.0206793,1.41470588 Z" id="Combined-Shape"></path>
                        </g>
                    </g>
                </g>
            </g>
        </g>
    </g>
</svg>