<?xml version="1.0" encoding="UTF-8"?>
<svg width="41px" height="10px" viewBox="0 0 41 10" version="1.1" xmlns="http://www.w3.org/2000/svg" xmlns:xlink="http://www.w3.org/1999/xlink">
    <!-- Generator: sketchtool 59.1 (101010) - https://sketch.com -->
    <title>57B4D342-FF38-4186-9B3A-F4575A874E96</title>
    <desc>Created with sketchtool.</desc>
    <g id="KB-Mobile-1.0" stroke="none" stroke-width="1" fill="none" fill-rule="evenodd">
        <g id="Landing" transform="translate(-20.000000, -672.000000)" fill="#FFFFFF">
            <g id="Footer" transform="translate(0.000000, 652.000000)">
                <g id="Group" transform="translate(20.000000, 20.000000)">
                    <g id="KB-Logo-S" transform="translate(0.000000, 0.000000)">
                        <g id="Negative">
                            <path d="M0.87322261,3.37507799e-14 L0.87322261,4.86735057 L1.76464047,4.86735057 C2.57495237,4.86735057 3.13357157,3.72120905 3.36562337,2.73985952 L3.36562337,2.73985952 L4.21387112,2.9390308 C4.02090173,3.75504183 3.64847232,4.60428948 3.09404052,5.14983695 C3.33511516,5.31020734 3.53546235,5.53262934 3.67045617,5.80428525 L3.67045617,5.80428525 L3.67698652,5.81799722 C3.68306822,5.83126206 4.28321248,7.15233052 4.47284192,7.52066573 C4.53645053,7.64437151 4.89452314,8.27686079 5.69925184,8.59139144 L5.69925184,8.59139144 L5.38105923,9.4 C4.31182639,8.98198375 3.82205005,8.15926578 3.69742503,7.91702104 C3.50380759,7.54098527 2.94139979,6.30447394 2.88661463,6.18374902 C2.7463367,5.90722436 2.46677785,5.73582478 2.15541469,5.73582478 L2.15541469,5.73582478 L0.87322261,5.73582478 L0.87322261,7.64034734 L0.00184445034,7.64034734 L0.00184445034,5.73582478 L-2.66453526e-15,5.73582478 L-2.66453526e-15,4.66157172 L0.00184445034,4.66157172 L0.00184445034,3.37507799e-14 L0.87322261,3.37507799e-14 Z M10.7271589,0.536013699 C11.1867261,0.822822316 11.5203224,1.43876779 11.5203224,2.00061062 L11.5203224,2.00061062 L11.5203224,2.2065882 L13.4500163,2.2065882 L13.4500163,3.07511206 L11.5203224,3.07511206 L11.5203224,6.51343716 C11.5311897,6.62318256 11.5623958,6.76532001 11.6473901,6.85295735 C11.7426534,6.95117676 11.9167297,7.00522973 12.1377646,7.00522973 L12.1377646,7.00522973 L12.2249112,7.00513543 C12.5730056,7.00221535 13.073062,6.96425434 13.7228454,6.47076115 C13.7824162,6.42550172 13.8404416,6.3812856 13.8977192,6.33756629 C13.693384,5.93664034 13.5771338,5.48007162 13.5771338,4.99553248 C13.5771338,3.40961447 14.8174519,2.11949734 16.3419151,2.11949734 C17.866478,2.11949734 19.1067961,3.40961447 19.1067961,4.99553248 C19.1067961,6.58145049 17.866478,7.87151794 16.3419151,7.87151794 C15.5879337,7.87151794 14.9037423,7.55559624 14.4044944,7.04472615 C14.3541459,7.08307991 14.3032491,7.12193048 14.251106,7.16152626 C13.3131282,7.87385295 12.5506722,7.87385295 12.1410547,7.87385295 C11.6716172,7.87370391 11.2855288,7.72952954 11.020925,7.4566813 C10.808863,7.23823378 10.6806986,6.93135403 10.6503898,6.56917928 L10.6503898,6.56917928 L10.6488943,6.53306117 L10.6488943,6.1468408 C10.468188,6.28992218 9.94396533,6.70277158 9.28873679,7.20042651 C8.35075899,7.9127532 7.58840277,7.9127532 7.17888493,7.9127532 C5.71957572,7.9127532 4.73907586,6.74375844 4.73907586,5.00377953 C4.73907586,4.12482265 5.06364928,3.30215439 5.62949675,2.74662105 C6.06638224,2.31782403 6.61622786,2.08650913 7.18551498,2.09490523 C8.46232331,2.11428083 9.21834858,3.04575057 9.21151912,3.93533919 C9.20478937,4.81524 8.46466626,5.70308979 6.82609641,5.70308979 L6.82609641,5.70308979 L5.67949631,5.70308979 C5.89076065,6.67857692 6.55251955,7.04422934 7.17888493,7.04422934 C7.52843321,7.04422934 8.05659407,7.04422934 8.76052608,6.50956204 C9.5637593,5.89962796 10.1662964,5.41970916 10.1722784,5.41484042 C10.5606598,5.10488044 10.6458036,4.88916538 10.6488943,4.66381221 L10.6488943,4.66381221 L10.6488943,3.07511206 L10.0512924,3.07511206 L10.0512924,2.2065882 L10.6488943,2.2065882 L10.6488943,2.00061062 C10.6488943,1.73566166 10.4729736,1.40205351 10.2647003,1.27218728 L10.2647003,1.27218728 Z M16.3419148,2.98797159 C15.2979061,2.98797159 14.4486115,3.8885894 14.4486115,4.99553256 C14.4486115,6.10247571 15.2979061,7.00304384 16.3419148,7.00304384 C17.3859236,7.00304384 18.2353179,6.10247571 18.2353179,4.99553256 C18.2353179,3.8885894 17.3859236,2.98797159 16.3419148,2.98797159 Z M7.17230466,2.9633795 C6.74479097,2.95697064 6.43148366,3.17844871 6.24105662,3.36539846 C5.8812891,3.71858096 5.6536241,4.25861384 5.61608704,4.8346158 L5.61608704,4.8346158 L6.82609634,4.8346158 C7.74164162,4.8346158 8.33590359,4.47899893 8.34011239,3.92868207 C8.34363034,3.46292234 7.90784155,2.97440869 7.17230466,2.9633795 Z" id="Combined-Shape"></path>
                            <path d="M35.2076368,0.2 L35.2076368,7.01949448 C35.2082833,7.19917245 35.2597078,7.31557446 35.3605674,7.36538324 C35.541299,7.45465284 35.9471245,7.37459241 36.4468468,6.99543179 C36.6456317,6.84466865 36.8305907,6.70291664 36.9982921,6.57374061 C36.9585053,6.3791101 36.9384626,6.16309054 36.9384626,5.92518681 L36.9384626,5.92518681 L36.9804875,2.68429923 L37.3990447,2.68429923 L37.3676629,5.84195763 C37.360551,6.36291978 37.4513644,6.75896389 37.6399042,7.02994144 C37.8281953,7.30086949 38.1318681,7.43638302 38.550674,7.43638302 C38.9621194,7.43638302 39.3214441,7.2835899 39.6286978,6.97775611 C39.935653,6.67216988 40.1747718,6.17200265 40.3458551,5.47720491 C40.51664,4.78245669 40.6021816,3.85148813 40.6021816,2.68429923 L40.6021816,2.68429923 L41,2.68429923 L41,7.25918063 C41,8.22480738 40.8063874,8.92302143 40.4189633,9.35377325 C40.0317879,9.78462409 39.4366269,10 38.6344253,10 C38.3479602,10 38.0620423,9.97044151 37.7758259,9.91142356 C37.4896095,9.85225708 37.248949,9.76709695 37.0535957,9.65614122 L37.0535957,9.65614122 L37.2001107,9.2600971 C37.3886504,9.36426973 37.6153358,9.44764744 37.8805646,9.51013121 C38.1457935,9.572714 38.4074415,9.60395588 38.6657574,9.60395588 C39.3495435,9.60395588 39.8415075,9.42685252 40.1416492,9.07254677 C40.4417413,8.71824102 40.5953681,8.13801337 40.6021816,7.33206186 L40.6021816,7.33206186 L40.6231691,5.58132803 C40.4486045,6.38044692 40.1747718,6.95532731 39.801472,7.3060187 C39.428023,7.65695766 38.983107,7.83232811 38.4669228,7.83232811 C37.9853532,7.83232811 37.6100641,7.66918705 37.3415528,7.34255834 C37.2552651,7.23774206 37.1830521,7.11762667 37.1244163,6.98275679 C36.9888924,7.08692942 36.8439192,7.19778612 36.6906405,7.31394058 C36.2729287,7.63081548 35.8621299,7.79875918 35.5278212,7.79875918 C35.4001055,7.79875918 35.2835799,7.77425088 35.182024,7.72414504 C35.0438643,7.65606645 34.8143442,7.47653701 34.8060884,7.03984379 L34.8060884,7.03984379 L34.8053921,7.03984379 L34.8053921,6.94339499 C34.3987709,7.50361991 33.8038586,7.8386161 33.1559801,7.8386161 C31.9510862,7.8386161 30.9709877,6.6667731 30.9709877,5.22618058 C30.9709877,4.06582429 31.7868661,2.91036967 32.7899414,2.65063127 C33.1935786,2.54606256 33.6973294,2.57898784 33.7942103,2.58636508 C34.1704941,2.61651771 34.5666712,2.7103919 34.8053921,2.77475711 L34.8053921,2.77475711 L34.8053921,0.2 L35.2076368,0.2 Z M20.7032156,0.208421941 L20.7032156,3.43826849 C21.109041,2.89740263 21.6935093,2.57547752 22.328855,2.57547752 C23.5337489,2.57547752 24.513897,3.74737006 24.513897,5.18796262 C24.513897,6.34831893 23.697969,7.50367456 22.6949931,7.76366052 C22.4604499,7.82441139 22.1948729,7.83901734 21.9932532,7.83901734 C21.844749,7.83901734 21.7310084,7.83099644 21.6901274,7.82777818 C21.1115775,7.78143523 20.4848854,7.58408157 20.4585267,7.5757636 L20.4585267,7.5757636 L20.391834,7.55462211 L20.3009709,7.42024734 L20.3009709,0.208421941 L20.7032156,0.208421941 Z M27.7572334,2.55801468 C29.149374,2.55801468 30.2820051,3.7394134 30.2820051,5.19169064 C30.2820051,6.64396787 29.149374,7.82536659 27.7572334,7.82536659 C26.3650929,7.82536659 25.232412,6.64396787 25.232412,5.19169064 C25.232412,3.7394134 26.3650929,2.55801468 27.7572334,2.55801468 Z M33.7622315,2.98557802 C33.710061,2.98146854 33.2399301,2.94765205 32.8912485,3.03820896 C32.1580273,3.22803683 31.373133,4.15251937 31.373133,5.22618067 C31.373133,6.44590149 32.1729473,7.43821507 33.15598,7.43821507 C33.8770662,7.43821507 34.5230548,6.90378573 34.8018111,6.07664321 L34.8018111,6.07664321 L34.8053919,6.07783149 L34.8053919,3.190705 C34.6119286,3.13530141 34.166366,3.01785965 33.7622315,2.98557802 Z M22.328855,2.97592816 C21.6246781,2.97592816 20.9920181,3.48570065 20.7032156,4.28011592 L20.7032156,4.28011592 L20.7032156,7.23032023 C20.9077198,7.28800137 21.3344333,7.39757077 21.7226532,7.42856509 C21.9119887,7.44401274 22.3077183,7.45015219 22.5937854,7.37603317 C23.3268575,7.18610628 24.1117021,6.26152475 24.1117021,5.1879625 C24.1117021,3.9682417 23.3118877,2.97592816 22.328855,2.97592816 Z M27.7572334,2.95841584 C26.5867552,2.95841584 25.634607,3.96023561 25.634607,5.19169064 C25.634607,6.42309617 26.5867552,7.42491593 27.7572334,7.42491593 C28.927662,7.42491593 29.8798599,6.42309617 29.8798599,5.19169064 C29.8798599,3.96023561 28.927662,2.95841584 27.7572334,2.95841584 Z" id="Combined-Shape"></path>
                        </g>
                    </g>
                </g>
            </g>
        </g>
    </g>
</svg>