<?xml version="1.0" encoding="UTF-8"?>
<svg width="70px" height="17px" viewBox="0 0 70 17" version="1.1" xmlns="http://www.w3.org/2000/svg" xmlns:xlink="http://www.w3.org/1999/xlink">
    <!-- Generator: sketchtool 61 (101010) - https://sketch.com -->
    <title>CD6B49D9-6F9B-4DC8-ACC2-A758BA43617E</title>
    <desc>Created with sketchtool.</desc>
    <g id="Asset-Artboard-Page" stroke="none" stroke-width="1" fill="none" fill-rule="evenodd">
        <g id="KB-Logo-S" fill="#28364E">
            <g id="Negative">
                <path d="M1.49086787,5.77315973e-14 L1.49086787,8.27449598 L3.01280081,8.27449598 C4.39626014,8.27449598 5.35000025,6.32605538 5.74618623,4.65776118 L5.74618623,4.65776118 L7.19441411,4.99635235 C6.86495418,6.38357112 6.22909908,7.82729212 5.2825082,8.75472282 C5.69409905,9.02735248 6.03615523,9.40546988 6.26663249,9.86728493 L6.26663249,9.86728493 L6.27778187,9.89059527 C6.28816526,9.9131455 7.3128018,12.1589619 7.63655937,12.7851317 C7.74515944,12.9954316 8.35650293,14.0706633 9.73042997,14.6053654 L9.73042997,14.6053654 L9.1871743,15.98 C7.36165481,15.2693724 6.5254513,13.8707518 6.31267687,13.4589358 C5.98211052,12.819675 5.02190208,10.7176057 4.92836644,10.5123733 C4.68886754,10.0422814 4.21157194,9.75090213 3.67997631,9.75090213 L3.67997631,9.75090213 L1.49086787,9.75090213 L1.49086787,12.9885905 L0.00314906155,12.9885905 L0.00314906155,9.75090213 L-4.4408921e-15,9.75090213 L-4.4408921e-15,7.92467192 L0.00314906155,7.92467192 L0.00314906155,5.77315973e-14 L1.49086787,5.77315973e-14 Z M18.3146615,0.911223288 C19.0992885,1.39879794 19.6688431,2.44590525 19.6688431,3.40103806 L19.6688431,3.40103806 L19.6688431,3.75119993 L22.9634424,3.75119993 L22.9634424,5.2276905 L19.6688431,5.2276905 L19.6688431,7.46936837 L19.6693537,7.46936837 L19.6690984,7.91306721 L19.6690984,7.91306721 L19.6688431,7.91961269 L19.6688431,11.0728432 C19.687397,11.2594104 19.7406757,11.501044 19.8857879,11.6500275 C20.0484327,11.8170005 20.345636,11.9088905 20.7230127,11.9088905 L20.7230127,11.9088905 L20.7271831,11.9088905 C21.3255899,11.9091439 22.2274131,11.9091439 23.4292482,11.000294 C23.5309544,10.9233529 23.6300222,10.8481855 23.7278133,10.7738627 C23.3789484,10.0922886 23.1804724,9.31612175 23.1804724,8.49240522 C23.1804724,5.7963446 25.2980887,3.60314548 27.9008307,3.60314548 C30.5037429,3.60314548 32.6213592,5.7963446 32.6213592,8.49240522 C32.6213592,11.1884658 30.5037429,13.3815805 27.9008307,13.3815805 C26.6135453,13.3815805 25.4454137,12.8445136 24.5930393,11.9760345 C24.5070784,12.0412358 24.4201813,12.1072818 24.3311565,12.1745946 C22.729731,13.38555 21.427977,13.38555 20.72863,13.38555 C19.9271512,13.3852966 19.267976,13.1402002 18.8162134,12.6763582 C18.4541564,12.3049974 18.2353391,11.7833018 18.1835924,11.1676048 L18.1835924,11.1676048 L18.1810391,11.106204 L18.1810391,10.4496294 C17.8725162,10.6928677 16.9775018,11.3947117 15.8588189,12.2407251 C14.2573934,13.4516804 12.9558096,13.4516804 12.2566328,13.4516804 C9.76512927,13.4516804 8.09110512,11.4643893 8.09110512,8.50642521 C8.09110512,7.01219851 8.64525486,5.61366246 9.61133591,4.66925579 C10.357238,3.94030086 11.2959988,3.54706553 12.2679524,3.56133889 C14.4478691,3.59427741 15.7386439,5.17777596 15.7269839,6.69007662 C15.7154941,8.18590801 14.4518692,9.69525264 11.6543109,9.69525264 L11.6543109,9.69525264 L9.69670102,9.69525264 C10.0573962,11.3535808 11.1872285,11.9751899 12.2566328,11.9751899 C12.8534226,11.9751899 13.7551606,11.9751899 14.9569957,11.0662555 C16.3283695,10.0293675 17.3570914,9.21350558 17.3673046,9.20522871 C18.0303948,8.67829675 18.1757623,8.31158115 18.1810391,7.92848075 L18.1810391,7.92848075 L18.1810391,5.2276905 L17.1607431,5.2276905 L17.1607431,3.75119993 L18.1810391,3.75119993 L18.1810391,3.40103806 C18.1810391,2.95062482 17.8806867,2.38349096 17.5250981,2.16271838 L17.5250981,2.16271838 Z M27.9008302,5.07955171 C26.1183763,5.07955171 24.6683611,6.61060199 24.6683611,8.49240535 C24.6683611,10.3742087 26.1183763,11.9051745 27.9008302,11.9051745 C29.6832841,11.9051745 31.1334695,10.3742087 31.1334695,8.49240535 C31.1334695,6.61060199 29.6832841,5.07955171 27.9008302,5.07955171 Z M12.2453982,5.03774514 C11.5154968,5.02685009 10.9805819,5.40336281 10.6554625,5.72117738 C10.0412253,6.32158763 9.65252895,7.23964354 9.58844129,8.21884686 L9.58844129,8.21884686 L11.6543108,8.21884686 C13.2174369,8.21884686 14.2320305,7.61429818 14.2392163,6.67875952 C14.2452225,5.88696797 13.5011929,5.05649477 12.2453982,5.03774514 Z" id="Combined-Shape"></path>
                <path d="M60.1105994,0.34 L60.1105994,11.9331406 C60.1117033,12.2385932 60.1995011,12.4364766 60.3717004,12.5211515 C60.6802665,12.6729098 61.3731393,12.5368071 62.2263239,11.892234 C62.5657127,11.6359367 62.8814962,11.3949583 63.1678157,11.175359 C63.099887,10.8444872 63.0656679,10.4772539 63.0656679,10.0728176 L63.0656679,10.0728176 L63.1374176,4.5633087 L63.8520276,4.5633087 L63.7984488,9.93132797 C63.7863066,10.8169636 63.9413539,11.4902386 64.263251,11.9509005 C64.5847236,12.4114781 65.1031895,12.6418511 65.818224,12.6418511 C66.5206917,12.6418511 67.1341728,12.3821028 67.6587523,11.8621854 C68.1828222,11.3426888 68.5910737,10.4924045 68.8831672,9.31124835 C69.1747511,8.13017637 69.3207979,6.54752982 69.3207979,4.5633087 L69.3207979,4.5633087 L70,4.5633087 L70,12.3406071 C70,13.9821726 69.6694419,15.1691364 69.0079862,15.9014145 C68.346955,16.633861 67.3308264,17 65.9612139,17 C65.4721272,17 64.9839746,16.9497506 64.4953125,16.8494201 C64.0066503,16.748837 63.5957666,16.6040648 63.2622366,16.4154401 L63.2622366,16.4154401 L63.5123841,15.7421651 C63.8342812,15.9192585 64.221305,16.0610006 64.6741348,16.1672231 C65.1269645,16.2736138 65.5736806,16.326725 66.0147078,16.326725 C67.1821475,16.326725 68.0220859,16.0256493 68.5345231,15.4233295 C69.0468754,14.8210097 69.3091651,13.8346227 69.3207979,12.4645052 L69.3207979,12.4645052 L69.3566302,9.48825764 C69.0585931,10.8467598 68.5910737,11.8240564 67.9537327,12.4202318 C67.3161369,13.016828 66.5565241,13.3149578 65.6752341,13.3149578 C64.853042,13.3149578 64.2123045,13.037618 63.7538706,12.4823492 C63.6065503,12.3041615 63.4832597,12.0999653 63.3831497,11.8706865 C63.1517676,12.04778 62.9042523,12.2362364 62.642557,12.433699 C61.9293905,12.9723863 61.2280266,13.2578906 60.6572557,13.2578906 C60.4392045,13.2578906 60.2402583,13.2162265 60.0668703,13.1310466 C59.8309879,13.015313 59.4391242,12.7101129 59.425029,11.9677344 L59.425029,11.9677344 L59.4238402,11.9677344 L59.4238402,11.8037715 C58.7296089,12.7561539 57.7139049,13.3256474 56.6077708,13.3256474 C54.5506349,13.3256474 52.8772962,11.3335143 52.8772962,8.88450698 C52.8772962,6.9119013 54.2702592,4.94762844 55.9828267,4.50607317 C56.6719635,4.32830635 57.5320258,4.38427933 57.6974322,4.39682064 C58.3398679,4.44808011 59.016268,4.60766623 59.4238402,4.7170871 L59.4238402,4.7170871 L59.4238402,0.34 L60.1105994,0.34 Z M35.3469534,0.3543173 L35.3469534,5.84505643 C36.0398262,4.92558446 37.0376989,4.37831179 38.1224354,4.37831179 C40.1795713,4.37831179 41.8529949,6.3705291 41.8529949,8.81953646 C41.8529949,10.7921422 40.459947,12.7562468 38.7475493,13.1982229 C38.3471096,13.3014994 37.8936854,13.3263295 37.5494567,13.3263295 C37.2959128,13.3263295 37.1017217,13.312694 37.0319249,13.3072229 C36.1603647,13.2377085 35.2248128,12.9683269 34.9858312,12.8961913 L34.9291918,12.8787981 L34.8153264,12.8428576 L34.6601942,12.6144205 L34.6601942,0.3543173 L35.3469534,0.3543173 Z M47.3903986,4.34862495 C49.7672239,4.34862495 51.7009843,6.35700277 51.7009843,8.82587408 C51.7009843,11.2947454 49.7672239,13.3031232 47.3903986,13.3031232 C45.0135732,13.3031232 43.0797279,11.2947454 43.0797279,8.82587408 C43.0797279,6.35700277 45.0135732,4.34862495 47.3903986,4.34862495 Z M38.1224354,5.05907787 C36.9201822,5.05907787 35.8400309,5.9256911 35.3469534,7.27619706 L35.3469534,7.27619706 L35.3469534,12.2915444 C35.6961069,12.3896023 36.4246423,12.5758703 37.0874566,12.6285607 C37.4107124,12.6548217 38.0863482,12.6652587 38.5747556,12.5392564 C39.826342,12.2163807 41.1663206,10.6445921 41.1663206,8.81953625 C41.1663206,6.7460109 39.8007838,5.05907787 38.1224354,5.05907787 Z M57.6428342,5.07548263 C57.5537627,5.06849652 56.7511002,5.01100848 56.1557901,5.16495523 C54.903949,5.48766261 53.5638855,7.05928292 53.5638855,8.88450713 C53.5638855,10.9580325 54.9294223,12.6449656 56.6077707,12.6449656 C57.8388935,12.6449656 58.9418008,11.7364357 59.4177263,10.3302934 L59.4177263,10.3302934 L59.4238399,10.3323135 L59.4238399,5.42419851 C59.0935366,5.33001239 58.33282,5.1303614 57.6428342,5.07548263 Z M47.3903986,5.02930693 C45.392021,5.02930693 43.7664022,6.73240053 43.7664022,8.82587409 C43.7664022,10.9192635 45.392021,12.6223571 47.3903986,12.6223571 C49.3886912,12.6223571 51.0143949,10.9192635 51.0143949,8.82587409 C51.0143949,6.73240053 49.3886912,5.02930693 47.3903986,5.02930693 Z" id="Combined-Shape"></path>
            </g>
        </g>
    </g>
</svg>