<?xml version="1.0" encoding="UTF-8"?>
<svg width="48px" height="52px" viewBox="0 0 48 52" version="1.1" xmlns="http://www.w3.org/2000/svg" xmlns:xlink="http://www.w3.org/1999/xlink">
    <!-- Generator: Sketch 60 (88103) - https://sketch.com -->
    <title>Icons / Man</title>
    <desc>Created with Sketch.</desc>
    <defs>
        <filter x="-11.8%" y="-56.7%" width="123.6%" height="213.5%" filterUnits="objectBoundingBox" id="filter-1">
            <feOffset dx="0" dy="0" in="SourceAlpha" result="shadowOffsetOuter1"></feOffset>
            <feGaussianBlur stdDeviation="7.5" in="shadowOffsetOuter1" result="shadowBlurOuter1"></feGaussianBlur>
            <feColorMatrix values="0 0 0 0 0   0 0 0 0 0   0 0 0 0 0  0 0 0 0.15 0" type="matrix" in="shadowBlurOuter1" result="shadowMatrixOuter1"></feColorMatrix>
            <feMerge>
                <feMergeNode in="shadowMatrixOuter1"></feMergeNode>
                <feMergeNode in="SourceGraphic"></feMergeNode>
            </feMerge>
        </filter>
    </defs>
    <g id="KB-Mobile-1.0" stroke="none" stroke-width="1" fill="none" fill-rule="evenodd">
        <g id="Landing" transform="translate(-200.000000, -427.000000)" fill="#FFFFFF">
            <g id="Group-2" transform="translate(35.000000, 355.000000)">
                <g id="W-button-Copy" filter="url(#filter-1)" transform="translate(0.000000, 73.000000)">
                    <g id="Icons-/-Man" transform="translate(163.000000, 0.000000)">
                        <path d="M23.5728053,26.8410885 L25.2395597,30.9115181 C25.5256468,31.6102754 26.4694647,31.6457465 26.8163632,31.0029219 L26.8511897,30.9314517 L28.6413987,26.8410885 L29.1232172,26.8410885 C32.3753623,26.8410885 35.0188073,29.4658348 35.0981651,32.7310147 L35.1,32.8821628 L35.1,36.9596197 C35.1,37.3685204 34.7696587,37.7 34.3621622,37.7 C33.978636,37.7 33.663455,37.406371 33.6277019,37.0309232 L33.6243243,36.9596197 L33.6243243,32.8821628 C33.6243243,30.5681158 31.9236506,28.6583815 29.7218107,28.3618394 L29.594234,28.3465296 L28.2022709,31.5269595 C27.3801239,33.4047847 24.7613399,33.406598 23.9187761,31.5759313 L23.8746011,31.4742597 L22.5875511,28.3311171 L22.4598695,28.3411605 C20.2129998,28.550321 18.4423241,30.4332065 18.3775141,32.7505375 L18.3756757,32.8821628 L18.3756757,36.9596197 C18.3756757,37.3685204 18.0453344,37.7 17.6378378,37.7 C17.2543116,37.7 16.9391307,37.406371 16.9033776,37.0309232 L16.9,36.9596197 L16.9,32.8821628 C16.9,29.597747 19.49417,26.9232368 22.7271231,26.842945 L22.8767828,26.8410885 L23.5728053,26.8410885 Z M26.1487947,13 C29.1036537,13 31.5033601,15.360084 31.5033601,18.2772121 L31.5033601,20.8478448 C31.5033601,23.7090874 29.1914062,26.0434945 26.2905006,26.1231802 L26.1487947,26.1250569 C23.1939358,26.1250569 20.7942294,23.7649729 20.7942294,20.8478448 L20.7942294,18.2772121 C20.7942294,15.360084 23.1939358,13 26.1487947,13 Z M30.0422294,18.62 L29.9059387,18.7127412 C27.454488,20.2975332 24.8598521,20.5790912 22.4831916,20.0836657 L22.254,20.032 L22.2545654,20.8478448 C22.2545654,22.9545237 23.9955042,24.6667862 26.1387566,24.6667862 L26.2603681,24.6651856 C28.365934,24.6072971 30.0430241,22.9139194 30.0430241,20.8478448 L30.0422294,18.62 Z M26.1487947,14.4583397 C23.9955042,14.4583397 22.2545654,16.1705332 22.2545654,18.2772121 L22.2541381,18.529493 C22.3422629,18.5538558 22.4359722,18.5779159 22.5349798,18.601286 C24.632936,19.0964944 26.9399076,18.8929516 29.1123524,17.4885288 C29.2745055,17.3837014 29.4349575,17.2724716 29.5936469,17.1547068 L29.8147161,16.9859669 C29.2752044,15.5133222 27.8390366,14.4583397 26.1487947,14.4583397 Z" id="Combined-Shape"></path>
                    </g>
                </g>
            </g>
        </g>
    </g>
</svg>