<?xml version="1.0" encoding="UTF-8"?>
<svg width="84px" height="68px" viewBox="0 0 84 68" version="1.1" xmlns="http://www.w3.org/2000/svg" xmlns:xlink="http://www.w3.org/1999/xlink">
    <title>926F72D1-5187-4BA2-9210-76FF28F17576</title>
    <defs>
        <linearGradient x1="47.9351506%" y1="22.3792858%" x2="73.0669781%" y2="71.7696896%" id="linearGradient-1">
            <stop stop-color="#5C74D4" offset="0%"></stop>
            <stop stop-color="#9A52C9" offset="100%"></stop>
        </linearGradient>
        <path d="M16.4684535,7.96079385 L10.7343327,8.92103606 L8.29126218,9.97994306 L7.93452818,11.7999328 L8.09990832,16.494666 L2.63468931,16.1785486 C1.13361944,13.0936607 0.422437234,11.1869163 0.50114268,10.4583152 C0.579848126,9.72971425 1.4448057,7.09522346 3.09601539,2.55484288 C6.72184952,0.851614293 8.64014857,0 8.85091255,0 C9.06167652,0 12.4371218,0.415009051 18.9772485,1.24502715 L16.4684535,7.96079385 Z" id="path-2"></path>
    </defs>
    <g id="Page-1" stroke="none" stroke-width="1" fill="none" fill-rule="evenodd">
        <g id="Landing-2.0-Copy-3" transform="translate(-150.000000, -68.000000)">
            <g id="NYNY" transform="translate(150.000000, 68.000000)">
                <path d="M62.5075232,54.2421921 C75.7710785,58.1066527 88.5454395,47.5327952 81.3387929,32.0371029 C78.5851368,26.1162065 85,21.1577097 77.9894528,12.5103287 C66.2559238,-1.96276335 58.9787527,20.312115 27.6859107,12.1016536 C4.37977013,5.98670352 -4.73572783,13.9549512 2.48568684,32.196969 C5.46039181,39.7113722 0.514222787,50.955387 3.21651262,57.0373861 C10.5094357,73.4514474 37.2257157,46.8761017 62.5075232,54.2421921 Z" id="Oval" fill="url(#linearGradient-1)"></path>
                <g id="Group-8" transform="translate(3.000000, 13.000000)">
                    <mask id="mask-3" fill="white">
                        <use xlink:href="#path-2"></use>
                    </mask>
                    <g id="Path-2"></g>
                    <g id="Group-7" mask="url(#mask-3)" fill="#FFFFFF" fill-rule="nonzero">
                        <g transform="translate(10.778941, 15.047836) rotate(-10.000000) translate(-10.778941, -15.047836) translate(-1.721059, 2.047836)">
                            <path d="M12.2395537,12.1413274 C15.5881011,12.1413274 18.3102174,9.41794747 18.3102174,6.07066369 C18.3102174,2.72337991 15.5868375,-7.55022711e-15 12.2395537,-7.55022711e-15 C8.89226994,-7.55022711e-15 6.16889003,2.72337991 6.16889003,6.07066369 C6.16889003,9.41794747 8.89226994,12.1413274 12.2395537,12.1413274 Z M12.2395537,0.487434775 C15.318006,0.487434775 17.8227826,2.9922114 17.8227826,6.07066369 C17.8227826,9.14911598 15.318006,11.6538926 12.2395537,11.6538926 C9.16110143,11.6538926 6.65632481,9.14911598 6.65632481,6.07066369 C6.65632481,2.9922114 9.16110143,0.487434775 12.2395537,0.487434775 Z" id="Shape"></path>
                            <path d="M12.2395537,1.86128691 C12.36424,1.86375598 12.4673988,1.76483655 12.4701612,1.64015642 L12.4701612,1.10754784 C12.4637379,0.984872869 12.3623967,0.888699115 12.2395537,0.888699115 C12.1167107,0.888699115 12.0153695,0.984872869 12.0089462,1.10754784 L12.0089462,1.64015642 C12.0117086,1.76483655 12.1148674,1.86375598 12.2395537,1.86128691 Z" id="Path"></path>
                            <path d="M12.2395537,10.2800405 C12.1148674,10.2775714 12.0117086,10.3764908 12.0089462,10.501171 L12.0089462,11.0337795 C12.0153695,11.1564545 12.1167107,11.2526283 12.2395537,11.2526283 C12.3623967,11.2526283 12.4637379,11.1564545 12.4701612,11.0337795 L12.4701612,10.501171 C12.4673988,10.3764908 12.36424,10.2775714 12.2395537,10.2800405 Z" id="Path"></path>
                            <path d="M16.670061,6.3012712 L17.2026696,6.3012712 C17.3253445,6.2948479 17.4215183,6.19350671 17.4215183,6.07066369 C17.4215183,5.94782067 17.3253445,5.84647948 17.2026696,5.84005618 L16.670061,5.84005618 C16.547386,5.84647948 16.4512123,5.94782067 16.4512123,6.07066369 C16.4512123,6.19350671 16.547386,6.2948479 16.670061,6.3012712 L16.670061,6.3012712 Z" id="Path"></path>
                            <path d="M7.80904645,5.84005618 L7.27643788,5.84005618 C7.1537629,5.84647948 7.05758915,5.94782067 7.05758915,6.07066369 C7.05758915,6.19350671 7.1537629,6.2948479 7.27643788,6.3012712 L7.80904645,6.3012712 C7.93172143,6.2948479 8.02789518,6.19350671 8.02789518,6.07066369 C8.02789518,5.94782067 7.93172143,5.84647948 7.80904645,5.84005618 L7.80904645,5.84005618 Z" id="Path"></path>
                            <path d="M12.2395537,7.10966108 C12.5424973,7.10966108 12.8303803,6.97755655 13.0279379,6.74789205 C13.2254955,6.51822755 13.3130864,6.21383396 13.2678105,5.91429285 L15.5824149,3.05633924 C15.7179363,2.88891187 15.7207794,2.67725841 15.5890488,2.55595254 C15.5312222,2.5033394 15.4555679,2.4746585 15.3773953,2.47568564 C15.2706343,2.47879891 15.1686578,2.52069015 15.0905575,2.59354472 L12.3798136,5.04082742 C12.3336228,5.03476803 12.287088,5.03170791 12.2405014,5.0316663 C11.666679,5.0316663 11.201504,5.49684128 11.201504,6.07066369 C11.201504,6.6444861 11.666679,7.10966108 12.2405014,7.10966108 L12.2395537,7.10966108 Z M12.2395537,5.44960292 C12.2906676,5.44962804 12.3415876,5.45588696 12.3911861,5.46824106 L12.4992241,5.49540852 L14.6157588,3.5835775 L12.8125976,5.81004562 L12.8394491,5.91239744 C12.9073462,6.16963075 12.8039513,6.44154818 12.5822966,6.58868129 C12.3606418,6.73581441 12.0699126,6.72551423 11.859226,6.56306379 C11.6485394,6.40061335 11.5646471,6.12206056 11.6505779,5.87027719 C11.7365088,5.61849382 11.9731948,5.44935084 12.2392378,5.44960292 L12.2395537,5.44960292 Z" id="Shape"></path>
                        </g>
                    </g>
                </g>
                <path d="M11.4606007,49.008872 C11.5198599,49.008872 11.5702302,48.9881313 11.6117116,48.9466499 C11.6531931,48.9051684 11.6798597,48.8547981 11.6917116,48.7955389 L11.6917116,48.7955389 L12.5628218,41.6311016 C12.5628218,41.5836943 12.5746736,41.5599906 12.5983773,41.5599906 C12.622081,41.5599906 12.6457847,41.5777684 12.6694884,41.6133239 L12.6694884,41.6133239 L15.069486,48.8488722 C15.1050415,48.9555388 15.1820784,49.008872 15.3005968,49.008872 L15.3005968,49.008872 L17.3983725,49.008872 C17.4576317,49.008872 17.508002,48.9881313 17.5494835,48.9466499 C17.5909649,48.9051684 17.6176316,48.8547981 17.6294834,48.7955389 L17.6294834,48.7955389 L19.1050375,36.7777732 C19.1168893,36.718514 19.1050375,36.6681436 19.069482,36.6266622 C19.0339264,36.5851808 18.9865191,36.56444 18.9272599,36.56444 L18.9272599,36.56444 L16.918373,36.56444 C16.8591138,36.56444 16.8087435,36.5851808 16.767262,36.6266622 C16.7257806,36.6681436 16.699114,36.718514 16.6872621,36.7777732 L16.6872621,36.7777732 L15.8161519,43.9422104 C15.8043,43.9896178 15.7865223,44.0133215 15.7628186,44.0133215 C15.7391149,44.0133215 15.7213372,43.9955437 15.7094853,43.9599882 L15.7094853,43.9599882 L13.29171,36.7244399 C13.2561544,36.6177733 13.1850434,36.56444 13.0783768,36.56444 L13.0783768,36.56444 L10.9983789,36.56444 C10.9391197,36.56444 10.8857864,36.5851808 10.8383791,36.6266622 C10.7909717,36.6681436 10.7613421,36.718514 10.7494903,36.7777732 L10.7494903,36.7777732 L9.2739362,48.7955389 C9.2739362,48.937761 9.33912132,49.008872 9.46949156,49.008872 L9.46949156,49.008872 L11.4606007,49.008872 Z M26.3292383,49.008872 C26.3884975,49.008872 26.4388678,48.9881313 26.4803493,48.9466499 C26.5218307,48.9051684 26.5484973,48.8547981 26.5603492,48.7955389 L26.5603492,48.7955389 L26.7736823,47.0710962 C26.7736823,46.9288741 26.7084972,46.8577631 26.5781269,46.8577631 L26.5781269,46.8577631 L21.9559093,46.8577631 C21.908502,46.8577631 21.8847983,46.8281335 21.8847983,46.7688743 L21.8847983,46.7688743 L22.2403535,43.9066549 C22.2403535,43.8829512 22.2492424,43.8622105 22.2670201,43.8444328 C22.2847979,43.826655 22.3055386,43.8177661 22.3292423,43.8177661 L22.3292423,43.8177661 L25.2092394,43.8177661 C25.2684986,43.8177661 25.3218319,43.7970254 25.3692393,43.755544 C25.4166466,43.7140625 25.4462762,43.6636922 25.4581281,43.604433 L25.4581281,43.604433 L25.6536834,41.8799903 C25.6655353,41.8207311 25.6536834,41.7703608 25.6181279,41.7288793 C25.5825724,41.6873979 25.535165,41.6666572 25.4759058,41.6666572 L25.4759058,41.6666572 L22.5959087,41.6666572 C22.5485013,41.6666572 22.5247977,41.6370276 22.5247977,41.5777684 L22.5247977,41.5777684 L22.8625751,38.8044378 C22.8862788,38.7451786 22.9218343,38.715549 22.9692417,38.715549 L22.9692417,38.715549 L27.5914593,38.715549 C27.6507185,38.715549 27.7010888,38.6948083 27.7425702,38.6533268 C27.7840517,38.6118454 27.8107183,38.5614751 27.8225701,38.5022159 L27.8225701,38.5022159 L28.0359033,36.7777732 C28.0477551,36.718514 28.0359033,36.6681436 28.0003477,36.6266622 C27.9647922,36.5851808 27.9173849,36.56444 27.8581257,36.56444 L27.8581257,36.56444 L20.9247993,36.56444 C20.8655401,36.56444 20.8122068,36.5851808 20.7647994,36.6266622 C20.7173921,36.6681436 20.6877625,36.718514 20.6759106,36.7777732 L20.6759106,36.7777732 L19.2003565,48.7955389 C19.2003565,48.937761 19.2655417,49.008872 19.3959119,49.008872 L19.3959119,49.008872 L26.3292383,49.008872 Z M32.1667738,49.008872 C32.2971441,49.008872 32.380107,48.9436869 32.4156625,48.8133167 L32.4156625,48.8133167 L34.5489937,41.6666572 C34.5608455,41.6311016 34.5786233,41.6133239 34.602327,41.6133239 C34.6260306,41.6133239 34.6378825,41.6311016 34.6378825,41.6666572 L34.6378825,41.6666572 L35.1712153,48.8133167 C35.1712153,48.9436869 35.2364004,49.008872 35.3667706,49.008872 L35.3667706,49.008872 L37.3223242,49.008872 C37.4526945,49.008872 37.5356574,48.9436869 37.5712129,48.8133167 L37.5712129,48.8133167 L41.5534311,36.7955509 C41.6008385,36.641477 41.5534311,36.56444 41.411209,36.56444 L41.411209,36.56444 L39.3845444,36.56444 C39.2541742,36.56444 39.1712113,36.6296252 39.1356558,36.7599954 L39.1356558,36.7599954 L37.0556578,43.5866552 C37.043806,43.6222108 37.0230653,43.6399885 36.9934357,43.6399885 C36.9638061,43.6399885 36.9489913,43.6222108 36.9489913,43.5866552 L36.9489913,43.5866552 L36.3978807,36.7599954 C36.3978807,36.6296252 36.3326956,36.56444 36.2023254,36.56444 L36.2023254,36.56444 L34.2823273,36.56444 C34.151957,36.56444 34.0689942,36.6296252 34.0334386,36.7599954 L34.0334386,36.7599954 L31.9534407,43.5866552 C31.9415889,43.6222108 31.9208482,43.6399885 31.8912186,43.6399885 C31.861589,43.6399885 31.8467742,43.6222108 31.8467742,43.5866552 L31.8467742,43.5866552 L31.3667746,36.7599954 C31.3667746,36.6296252 31.3015895,36.56444 31.1712193,36.56444 L31.1712193,36.56444 L29.0556658,36.56444 C28.9015919,36.56444 28.824555,36.6296252 28.824555,36.7599954 L28.824555,36.7599954 L28.824555,36.7955509 L30.0512204,48.8310944 C30.0867759,48.9496128 30.157887,49.008872 30.2645535,49.008872 L30.2645535,49.008872 L32.1667738,49.008872 Z M49.2285062,48.9910943 C49.2877654,48.9910943 49.3381357,48.9703536 49.3796172,48.9288721 C49.4210986,48.8873907 49.4477652,48.8370204 49.4596171,48.7777612 L49.4596171,48.7777612 L50.0107276,44.2266546 L50.0462832,44.119988 L53.9396126,36.8133287 C53.9751681,36.7422176 53.984057,36.6829584 53.9662792,36.6355511 C53.9485015,36.5881437 53.8981312,36.56444 53.8151683,36.56444 L53.8151683,36.56444 L51.6462816,36.56444 C51.5159113,36.56444 51.4270225,36.6236992 51.3796152,36.7422176 L51.3796152,36.7422176 L49.2285062,41.2399909 C49.2166544,41.2755464 49.1988766,41.2933242 49.1751729,41.2933242 C49.1514692,41.2933242 49.1336915,41.2755464 49.1218396,41.2399909 L49.1218396,41.2399909 L48.0729518,36.7422176 C48.0611,36.6236992 47.9899889,36.56444 47.8596187,36.56444 L47.8596187,36.56444 L45.6729542,36.56444 C45.542584,36.56444 45.4773988,36.6236992 45.4773988,36.7422176 L45.4773988,36.7422176 L45.4951766,36.8133287 L47.5751745,44.119988 L47.5929523,44.2266546 L47.024064,48.7777612 C47.0122121,48.8370204 47.024064,48.8873907 47.0596195,48.9288721 C47.095175,48.9703536 47.1425824,48.9910943 47.2018416,48.9910943 L47.2018416,48.9910943 L49.2285062,48.9910943 Z M56.897151,49.1688719 C57.6912243,49.1688719 58.4141866,49.0029461 59.0660378,48.6710946 C59.717889,48.3392431 60.2482588,47.8710954 60.6571473,47.2666516 C61.0660358,46.6622077 61.3178874,45.9570232 61.4127021,45.1510981 L61.4127021,45.1510981 L61.9993682,40.422218 C62.0230718,40.1377698 62.0349237,39.9362885 62.0349237,39.8177701 C62.0349237,38.7748082 61.714924,37.9481424 61.0749246,37.3377726 C60.4349253,36.7274028 59.563815,36.422218 58.4615939,36.422218 C57.6675206,36.422218 56.9475214,36.5881437 56.3015961,36.9199952 C55.6556708,37.2518468 55.1312269,37.7199944 54.7282643,38.3244383 C54.3253018,38.9288821 54.0764131,39.6281407 53.9815984,40.422218 L53.9815984,40.422218 L53.3949323,45.1510981 C53.3712286,45.2933202 53.3593768,45.5066533 53.3593768,45.7910975 C53.3593768,46.8222076 53.6764135,47.6429475 54.310487,48.2533172 C54.9445604,48.863687 55.8067818,49.1688719 56.897151,49.1688719 Z M57.1638174,47.0177629 C56.7371512,47.0177629 56.4023367,46.8844297 56.159374,46.6177633 C55.9164113,46.3510969 55.7949299,45.9985047 55.7949299,45.5599866 C55.7949299,45.4296164 55.8008558,45.3288757 55.8127077,45.2577647 L55.8127077,45.2577647 L56.4171515,40.3511029 C56.4764107,39.8177701 56.6690031,39.3881409 56.9949287,39.0622153 C57.3208543,38.7362897 57.7208539,38.5733269 58.1949275,38.5733269 C58.6215938,38.5733269 58.9593712,38.7036972 59.2082598,38.9644376 C59.4571485,39.2251781 59.5815928,39.5748074 59.5815928,40.0133255 C59.5815928,40.1673994 59.5756669,40.2799919 59.563815,40.3511029 L59.563815,40.3511029 L58.977149,45.2577647 C58.9060379,45.7792456 58.7045566,46.2029489 58.3727051,46.5288745 C58.0408536,46.8548001 57.637891,47.0177629 57.1638174,47.0177629 Z M66.2191275,49.1510941 C67.001349,49.1510941 67.7124594,48.9851684 68.3524587,48.6533168 C68.9924581,48.3214653 69.5139391,47.8562806 69.9169016,47.2577627 C70.3198642,46.6592448 70.5687528,45.9688751 70.6635675,45.1866536 L70.6635675,45.1866536 L71.6946776,36.7777732 C71.7065295,36.718514 71.6946776,36.6681436 71.6591221,36.6266622 C71.6235666,36.5851808 71.5761592,36.56444 71.5169,36.56444 L71.5169,36.56444 L69.4902354,36.56444 C69.4309762,36.56444 69.3806059,36.5851808 69.3391244,36.6266622 C69.297643,36.6681436 69.2709763,36.718514 69.2591245,36.7777732 L69.2591245,36.7777732 L68.2102367,45.311098 C68.1509775,45.8207271 67.964311,46.2296156 67.6502372,46.5377634 C67.3361635,46.8459112 66.9480157,46.9999852 66.4857939,46.9999852 C66.0828314,46.9999852 65.7598687,46.8725779 65.516906,46.6177633 C65.2739433,46.3629488 65.1524619,46.0222084 65.1524619,45.5955421 C65.1524619,45.4770237 65.1583879,45.382209 65.1702397,45.311098 L65.1702397,45.311098 L66.2191275,36.7777732 C66.2309794,36.718514 66.2191275,36.6681436 66.183572,36.6266622 C66.1480165,36.5851808 66.1006091,36.56444 66.0413499,36.56444 L66.0413499,36.56444 L64.0324631,36.56444 C63.9732039,36.56444 63.9198706,36.5851808 63.8724632,36.6266622 C63.8250559,36.6681436 63.8013522,36.718514 63.8013522,36.7777732 L63.8013522,36.7777732 L62.7702421,45.1866536 C62.7465384,45.3288757 62.7346866,45.5422088 62.7346866,45.826653 C62.7346866,46.8340594 63.0487603,47.6399845 63.6769079,48.2444284 C64.3050554,48.8488722 65.1524619,49.1510941 66.2191275,49.1510941 Z M74.8122159,44.7422096 C74.8714751,44.7422096 74.9218454,44.7214689 74.9633268,44.6799875 C75.0048083,44.638506 75.0314749,44.5881357 75.0433268,44.5288765 L75.0433268,44.5288765 L76.2344367,36.7777732 C76.2462885,36.718514 76.2344367,36.6681436 76.1988812,36.6266622 C76.1633256,36.5851808 76.1159183,36.56444 76.0566591,36.56444 L76.0566591,36.56444 L74.0477722,36.56444 C73.988513,36.56444 73.9351797,36.5851808 73.8877724,36.6266622 C73.840365,36.6681436 73.8166613,36.718514 73.8166613,36.7777732 L73.8166613,36.7777732 L73.1055509,44.5288765 C73.0936991,44.5881357 73.1055509,44.638506 73.1411064,44.6799875 C73.176662,44.7214689 73.2240693,44.7422096 73.2833285,44.7422096 L73.2833285,44.7422096 L74.8122159,44.7422096 Z M73.4788839,48.9910943 C73.9055501,48.9910943 74.2699942,48.8340574 74.5722161,48.5199836 C74.874438,48.2059099 75.025549,47.823688 75.025549,47.3733181 C75.025549,47.0059111 74.9159195,46.715541 74.6966604,46.5022079 C74.4774014,46.2888748 74.1899943,46.1822082 73.8344391,46.1822082 C73.395921,46.1822082 73.028514,46.3333192 72.732218,46.6355411 C72.435922,46.937763 72.287774,47.3199848 72.287774,47.7822066 C72.287774,48.1377618 72.3974035,48.4281319 72.6166625,48.6533168 C72.8359216,48.8785018 73.1233287,48.9910943 73.4788839,48.9910943 Z" id="NEWYOU!" fill="#632F87" fill-rule="nonzero" transform="translate(42.756409, 42.795545) rotate(-9.000000) translate(-42.756409, -42.795545) "></path>
                <path d="M12.4606007,47.808872 C12.5198599,47.808872 12.5702302,47.7881313 12.6117116,47.7466499 C12.6531931,47.7051684 12.6798597,47.6547981 12.6917116,47.5955389 L12.6917116,47.5955389 L13.5628218,40.4311016 C13.5628218,40.3836943 13.5746736,40.3599906 13.5983773,40.3599906 C13.622081,40.3599906 13.6457847,40.3777684 13.6694884,40.4133239 L13.6694884,40.4133239 L16.069486,47.6488722 C16.1050415,47.7555388 16.1820784,47.808872 16.3005968,47.808872 L16.3005968,47.808872 L18.3983725,47.808872 C18.4576317,47.808872 18.508002,47.7881313 18.5494835,47.7466499 C18.5909649,47.7051684 18.6176316,47.6547981 18.6294834,47.5955389 L18.6294834,47.5955389 L20.1050375,35.5777732 C20.1168893,35.518514 20.1050375,35.4681436 20.069482,35.4266622 C20.0339264,35.3851808 19.9865191,35.36444 19.9272599,35.36444 L19.9272599,35.36444 L17.918373,35.36444 C17.8591138,35.36444 17.8087435,35.3851808 17.767262,35.4266622 C17.7257806,35.4681436 17.699114,35.518514 17.6872621,35.5777732 L17.6872621,35.5777732 L16.8161519,42.7422104 C16.8043,42.7896178 16.7865223,42.8133215 16.7628186,42.8133215 C16.7391149,42.8133215 16.7213372,42.7955437 16.7094853,42.7599882 L16.7094853,42.7599882 L14.29171,35.5244399 C14.2561544,35.4177733 14.1850434,35.36444 14.0783768,35.36444 L14.0783768,35.36444 L11.9983789,35.36444 C11.9391197,35.36444 11.8857864,35.3851808 11.8383791,35.4266622 C11.7909717,35.4681436 11.7613421,35.518514 11.7494903,35.5777732 L11.7494903,35.5777732 L10.2739362,47.5955389 C10.2739362,47.737761 10.3391213,47.808872 10.4694916,47.808872 L10.4694916,47.808872 L12.4606007,47.808872 Z M27.3292383,47.808872 C27.3884975,47.808872 27.4388678,47.7881313 27.4803493,47.7466499 C27.5218307,47.7051684 27.5484973,47.6547981 27.5603492,47.5955389 L27.5603492,47.5955389 L27.7736823,45.8710962 C27.7736823,45.7288741 27.7084972,45.6577631 27.5781269,45.6577631 L27.5781269,45.6577631 L22.9559093,45.6577631 C22.908502,45.6577631 22.8847983,45.6281335 22.8847983,45.5688743 L22.8847983,45.5688743 L23.2403535,42.7066549 C23.2403535,42.6829512 23.2492424,42.6622105 23.2670201,42.6444328 C23.2847979,42.626655 23.3055386,42.6177661 23.3292423,42.6177661 L23.3292423,42.6177661 L26.2092394,42.6177661 C26.2684986,42.6177661 26.3218319,42.5970254 26.3692393,42.555544 C26.4166466,42.5140625 26.4462762,42.4636922 26.4581281,42.404433 L26.4581281,42.404433 L26.6536834,40.6799903 C26.6655353,40.6207311 26.6536834,40.5703608 26.6181279,40.5288793 C26.5825724,40.4873979 26.535165,40.4666572 26.4759058,40.4666572 L26.4759058,40.4666572 L23.5959087,40.4666572 C23.5485013,40.4666572 23.5247977,40.4370276 23.5247977,40.3777684 L23.5247977,40.3777684 L23.8625751,37.6044378 C23.8862788,37.5451786 23.9218343,37.515549 23.9692417,37.515549 L23.9692417,37.515549 L28.5914593,37.515549 C28.6507185,37.515549 28.7010888,37.4948083 28.7425702,37.4533268 C28.7840517,37.4118454 28.8107183,37.3614751 28.8225701,37.3022159 L28.8225701,37.3022159 L29.0359033,35.5777732 C29.0477551,35.518514 29.0359033,35.4681436 29.0003477,35.4266622 C28.9647922,35.3851808 28.9173849,35.36444 28.8581257,35.36444 L28.8581257,35.36444 L21.9247993,35.36444 C21.8655401,35.36444 21.8122068,35.3851808 21.7647994,35.4266622 C21.7173921,35.4681436 21.6877625,35.518514 21.6759106,35.5777732 L21.6759106,35.5777732 L20.2003565,47.5955389 C20.2003565,47.737761 20.2655417,47.808872 20.3959119,47.808872 L20.3959119,47.808872 L27.3292383,47.808872 Z M33.1667738,47.808872 C33.2971441,47.808872 33.380107,47.7436869 33.4156625,47.6133167 L33.4156625,47.6133167 L35.5489937,40.4666572 C35.5608455,40.4311016 35.5786233,40.4133239 35.602327,40.4133239 C35.6260306,40.4133239 35.6378825,40.4311016 35.6378825,40.4666572 L35.6378825,40.4666572 L36.1712153,47.6133167 C36.1712153,47.7436869 36.2364004,47.808872 36.3667706,47.808872 L36.3667706,47.808872 L38.3223242,47.808872 C38.4526945,47.808872 38.5356574,47.7436869 38.5712129,47.6133167 L38.5712129,47.6133167 L42.5534311,35.5955509 C42.6008385,35.441477 42.5534311,35.36444 42.411209,35.36444 L42.411209,35.36444 L40.3845444,35.36444 C40.2541742,35.36444 40.1712113,35.4296252 40.1356558,35.5599954 L40.1356558,35.5599954 L38.0556578,42.3866552 C38.043806,42.4222108 38.0230653,42.4399885 37.9934357,42.4399885 C37.9638061,42.4399885 37.9489913,42.4222108 37.9489913,42.3866552 L37.9489913,42.3866552 L37.3978807,35.5599954 C37.3978807,35.4296252 37.3326956,35.36444 37.2023254,35.36444 L37.2023254,35.36444 L35.2823273,35.36444 C35.151957,35.36444 35.0689942,35.4296252 35.0334386,35.5599954 L35.0334386,35.5599954 L32.9534407,42.3866552 C32.9415889,42.4222108 32.9208482,42.4399885 32.8912186,42.4399885 C32.861589,42.4399885 32.8467742,42.4222108 32.8467742,42.3866552 L32.8467742,42.3866552 L32.3667746,35.5599954 C32.3667746,35.4296252 32.3015895,35.36444 32.1712193,35.36444 L32.1712193,35.36444 L30.0556658,35.36444 C29.9015919,35.36444 29.824555,35.4296252 29.824555,35.5599954 L29.824555,35.5599954 L29.824555,35.5955509 L31.0512204,47.6310944 C31.0867759,47.7496128 31.157887,47.808872 31.2645535,47.808872 L31.2645535,47.808872 L33.1667738,47.808872 Z M50.2285062,47.7910943 C50.2877654,47.7910943 50.3381357,47.7703536 50.3796172,47.7288721 C50.4210986,47.6873907 50.4477652,47.6370204 50.4596171,47.5777612 L50.4596171,47.5777612 L51.0107276,43.0266546 L51.0462832,42.919988 L54.9396126,35.6133287 C54.9751681,35.5422176 54.984057,35.4829584 54.9662792,35.4355511 C54.9485015,35.3881437 54.8981312,35.36444 54.8151683,35.36444 L54.8151683,35.36444 L52.6462816,35.36444 C52.5159113,35.36444 52.4270225,35.4236992 52.3796152,35.5422176 L52.3796152,35.5422176 L50.2285062,40.0399909 C50.2166544,40.0755464 50.1988766,40.0933242 50.1751729,40.0933242 C50.1514692,40.0933242 50.1336915,40.0755464 50.1218396,40.0399909 L50.1218396,40.0399909 L49.0729518,35.5422176 C49.0611,35.4236992 48.9899889,35.36444 48.8596187,35.36444 L48.8596187,35.36444 L46.6729542,35.36444 C46.542584,35.36444 46.4773988,35.4236992 46.4773988,35.5422176 L46.4773988,35.5422176 L46.4951766,35.6133287 L48.5751745,42.919988 L48.5929523,43.0266546 L48.024064,47.5777612 C48.0122121,47.6370204 48.024064,47.6873907 48.0596195,47.7288721 C48.095175,47.7703536 48.1425824,47.7910943 48.2018416,47.7910943 L48.2018416,47.7910943 L50.2285062,47.7910943 Z M57.897151,47.9688719 C58.6912243,47.9688719 59.4141866,47.8029461 60.0660378,47.4710946 C60.717889,47.1392431 61.2482588,46.6710954 61.6571473,46.0666516 C62.0660358,45.4622077 62.3178874,44.7570232 62.4127021,43.9510981 L62.4127021,43.9510981 L62.9993682,39.222218 C63.0230718,38.9377698 63.0349237,38.7362885 63.0349237,38.6177701 C63.0349237,37.5748082 62.714924,36.7481424 62.0749246,36.1377726 C61.4349253,35.5274028 60.563815,35.222218 59.4615939,35.222218 C58.6675206,35.222218 57.9475214,35.3881437 57.3015961,35.7199952 C56.6556708,36.0518468 56.1312269,36.5199944 55.7282643,37.1244383 C55.3253018,37.7288821 55.0764131,38.4281407 54.9815984,39.222218 L54.9815984,39.222218 L54.3949323,43.9510981 C54.3712286,44.0933202 54.3593768,44.3066533 54.3593768,44.5910975 C54.3593768,45.6222076 54.6764135,46.4429475 55.310487,47.0533172 C55.9445604,47.663687 56.8067818,47.9688719 57.897151,47.9688719 Z M58.1638174,45.8177629 C57.7371512,45.8177629 57.4023367,45.6844297 57.159374,45.4177633 C56.9164113,45.1510969 56.7949299,44.7985047 56.7949299,44.3599866 C56.7949299,44.2296164 56.8008558,44.1288757 56.8127077,44.0577647 L56.8127077,44.0577647 L57.4171515,39.1511029 C57.4764107,38.6177701 57.6690031,38.1881409 57.9949287,37.8622153 C58.3208543,37.5362897 58.7208539,37.3733269 59.1949275,37.3733269 C59.6215938,37.3733269 59.9593712,37.5036972 60.2082598,37.7644376 C60.4571485,38.0251781 60.5815928,38.3748074 60.5815928,38.8133255 C60.5815928,38.9673994 60.5756669,39.0799919 60.563815,39.1511029 L60.563815,39.1511029 L59.977149,44.0577647 C59.9060379,44.5792456 59.7045566,45.0029489 59.3727051,45.3288745 C59.0408536,45.6548001 58.637891,45.8177629 58.1638174,45.8177629 Z M67.2191275,47.9510941 C68.001349,47.9510941 68.7124594,47.7851684 69.3524587,47.4533168 C69.9924581,47.1214653 70.5139391,46.6562806 70.9169016,46.0577627 C71.3198642,45.4592448 71.5687528,44.7688751 71.6635675,43.9866536 L71.6635675,43.9866536 L72.6946776,35.5777732 C72.7065295,35.518514 72.6946776,35.4681436 72.6591221,35.4266622 C72.6235666,35.3851808 72.5761592,35.36444 72.5169,35.36444 L72.5169,35.36444 L70.4902354,35.36444 C70.4309762,35.36444 70.3806059,35.3851808 70.3391244,35.4266622 C70.297643,35.4681436 70.2709763,35.518514 70.2591245,35.5777732 L70.2591245,35.5777732 L69.2102367,44.111098 C69.1509775,44.6207271 68.964311,45.0296156 68.6502372,45.3377634 C68.3361635,45.6459112 67.9480157,45.7999852 67.4857939,45.7999852 C67.0828314,45.7999852 66.7598687,45.6725779 66.516906,45.4177633 C66.2739433,45.1629488 66.1524619,44.8222084 66.1524619,44.3955421 C66.1524619,44.2770237 66.1583879,44.182209 66.1702397,44.111098 L66.1702397,44.111098 L67.2191275,35.5777732 C67.2309794,35.518514 67.2191275,35.4681436 67.183572,35.4266622 C67.1480165,35.3851808 67.1006091,35.36444 67.0413499,35.36444 L67.0413499,35.36444 L65.0324631,35.36444 C64.9732039,35.36444 64.9198706,35.3851808 64.8724632,35.4266622 C64.8250559,35.4681436 64.8013522,35.518514 64.8013522,35.5777732 L64.8013522,35.5777732 L63.7702421,43.9866536 C63.7465384,44.1288757 63.7346866,44.3422088 63.7346866,44.626653 C63.7346866,45.6340594 64.0487603,46.4399845 64.6769079,47.0444284 C65.3050554,47.6488722 66.1524619,47.9510941 67.2191275,47.9510941 Z M75.8122159,43.5422096 C75.8714751,43.5422096 75.9218454,43.5214689 75.9633268,43.4799875 C76.0048083,43.438506 76.0314749,43.3881357 76.0433268,43.3288765 L76.0433268,43.3288765 L77.2344367,35.5777732 C77.2462885,35.518514 77.2344367,35.4681436 77.1988812,35.4266622 C77.1633256,35.3851808 77.1159183,35.36444 77.0566591,35.36444 L77.0566591,35.36444 L75.0477722,35.36444 C74.988513,35.36444 74.9351797,35.3851808 74.8877724,35.4266622 C74.840365,35.4681436 74.8166613,35.518514 74.8166613,35.5777732 L74.8166613,35.5777732 L74.1055509,43.3288765 C74.0936991,43.3881357 74.1055509,43.438506 74.1411064,43.4799875 C74.176662,43.5214689 74.2240693,43.5422096 74.2833285,43.5422096 L74.2833285,43.5422096 L75.8122159,43.5422096 Z M74.4788839,47.7910943 C74.9055501,47.7910943 75.2699942,47.6340574 75.5722161,47.3199836 C75.874438,47.0059099 76.025549,46.623688 76.025549,46.1733181 C76.025549,45.8059111 75.9159195,45.515541 75.6966604,45.3022079 C75.4774014,45.0888748 75.1899943,44.9822082 74.8344391,44.9822082 C74.395921,44.9822082 74.028514,45.1333192 73.732218,45.4355411 C73.435922,45.737763 73.287774,46.1199848 73.287774,46.5822066 C73.287774,46.9377618 73.3974035,47.2281319 73.6166625,47.4533168 C73.8359216,47.6785018 74.1233287,47.7910943 74.4788839,47.7910943 Z" id="NEWYOU!" fill="#FFFFFF" fill-rule="nonzero" transform="translate(43.756409, 41.595545) rotate(-9.000000) translate(-43.756409, -41.595545) "></path>
                <path d="M12.6051414,31.82605 C12.6975414,31.82605 12.754008,31.7747167 12.7745414,31.67205 L12.7745414,31.67205 L13.7601414,23.49465 C13.770408,23.46385 13.7832414,23.44845 13.7986414,23.44845 C13.8140414,23.44845 13.8268747,23.4587167 13.8371414,23.47925 L13.8371414,23.47925 L16.8401414,31.71825 C16.850408,31.7901167 16.9017414,31.82605 16.9941414,31.82605 L16.9941414,31.82605 L17.8103414,31.82605 C17.9027414,31.82605 17.959208,31.7747167 17.9797414,31.67205 L17.9797414,31.67205 L19.2579414,21.20005 C19.2784747,21.0973834 19.237408,21.04605 19.1347414,21.04605 L19.1347414,21.04605 L18.3647414,21.04605 C18.2723414,21.04605 18.2158747,21.0973834 18.1953414,21.20005 L18.1953414,21.20005 L17.2097414,29.40825 C17.189208,29.46985 17.1635414,29.4749834 17.1327414,29.42365 L17.1327414,29.42365 L14.1451414,21.15385 C14.1348747,21.0819834 14.078408,21.04605 13.9757414,21.04605 L13.9757414,21.04605 L13.1749414,21.04605 C13.0825414,21.04605 13.0260747,21.0973834 13.0055414,21.20005 L13.0055414,21.20005 L11.7119414,31.67205 C11.7119414,31.7747167 11.7581414,31.82605 11.8505414,31.82605 L11.8505414,31.82605 L12.6051414,31.82605 Z M25.7623116,31.82605 C25.8547116,31.82605 25.9111783,31.7747167 25.9317116,31.67205 L25.9317116,31.67205 L26.0087116,31.02525 C26.0189783,30.9841834 26.0112783,30.94825 25.9856116,30.91745 C25.9599449,30.88665 25.9214449,30.87125 25.8701116,30.87125 L25.8701116,30.87125 L21.3887116,30.87125 C21.3784449,30.87125 21.3681783,30.8661167 21.3579116,30.85585 C21.3476449,30.8455834 21.3425116,30.8301834 21.3425116,30.80965 L21.3425116,30.80965 L21.8199116,26.95965 C21.8199116,26.9185834 21.8404449,26.89805 21.8815116,26.89805 L21.8815116,26.89805 L24.8999116,26.89805 C24.9923116,26.89805 25.0487783,26.8467167 25.0693116,26.74405 L25.0693116,26.74405 L25.1463116,26.09725 C25.1668449,25.9945834 25.1257783,25.94325 25.0231116,25.94325 L25.0231116,25.94325 L22.0047116,25.94325 C21.9636449,25.94325 21.9431116,25.9227167 21.9431116,25.88165 L21.9431116,25.88165 L22.4205116,22.06245 C22.4205116,22.0213834 22.4410449,22.00085 22.4821116,22.00085 L22.4821116,22.00085 L26.9635116,22.00085 C27.0559116,22.00085 27.1123783,21.9495167 27.1329116,21.84685 L27.1329116,21.84685 L27.2099116,21.20005 C27.2304449,21.0973834 27.1893783,21.04605 27.0867116,21.04605 L27.0867116,21.04605 L21.6351116,21.04605 C21.5427116,21.04605 21.4862449,21.0973834 21.4657116,21.20005 L21.4657116,21.20005 L20.1721116,31.67205 C20.1721116,31.7747167 20.2183116,31.82605 20.3107116,31.82605 L20.3107116,31.82605 L25.7623116,31.82605 Z M30.3262818,31.82605 C30.4186818,31.82605 30.4802818,31.77985 30.5110818,31.68745 L30.5110818,31.68745 L33.2214818,23.29445 C33.2420151,23.26365 33.2574151,23.24825 33.2676818,23.24825 C33.2779485,23.24825 33.2830818,23.26365 33.2830818,23.29445 L33.2830818,23.29445 L33.9606818,31.68745 C33.9606818,31.77985 34.0120151,31.82605 34.1146818,31.82605 L34.1146818,31.82605 L34.8692818,31.82605 C34.9514151,31.82605 35.0130151,31.77985 35.0540818,31.68745 L35.0540818,31.68745 L38.6730818,21.21545 C38.6936151,21.1025167 38.6576818,21.04605 38.5652818,21.04605 L38.5652818,21.04605 L37.7952818,21.04605 C37.7028818,21.04605 37.6412818,21.09225 37.6104818,21.18465 L37.6104818,21.18465 L34.8230818,29.45445 C34.8128151,29.48525 34.7999818,29.50065 34.7845818,29.50065 C34.7691818,29.50065 34.7614818,29.48525 34.7614818,29.45445 L34.7614818,29.45445 L34.0530818,21.18465 C34.0530818,21.09225 34.0068818,21.04605 33.9144818,21.04605 L33.9144818,21.04605 L33.1598818,21.04605 C33.0674818,21.04605 33.0058818,21.09225 32.9750818,21.18465 L32.9750818,21.18465 L30.3108818,29.45445 C30.3006151,29.48525 30.2852151,29.50065 30.2646818,29.50065 C30.2441485,29.50065 30.2338818,29.48525 30.2338818,29.45445 L30.2338818,29.45445 L29.4176818,21.18465 C29.4176818,21.09225 29.3714818,21.04605 29.2790818,21.04605 L29.2790818,21.04605 L28.4628818,21.04605 C28.4218151,21.04605 28.3884485,21.0588834 28.3627818,21.08455 C28.3371151,21.1102167 28.3242818,21.1435834 28.3242818,21.18465 L28.3242818,21.18465 L28.3242818,21.21545 L29.4484818,31.68745 C29.4484818,31.7285167 29.4638818,31.7618834 29.4946818,31.78755 C29.5254818,31.8132167 29.5614151,31.82605 29.6024818,31.82605 L29.6024818,31.82605 L30.3262818,31.82605 Z M44.5516222,31.81065 C44.5926889,31.81065 44.6286222,31.79525 44.6594222,31.76445 C44.6902222,31.73365 44.7056222,31.6977167 44.7056222,31.65665 L44.7056222,31.65665 L45.2754222,27.06745 C45.2754222,27.03665 45.2856889,27.0109834 45.3062222,26.99045 L45.3062222,26.99045 L48.6018222,21.23085 C48.6326222,21.1795167 48.6377556,21.1358834 48.6172222,21.09995 C48.5966889,21.0640167 48.5607556,21.04605 48.5094222,21.04605 L48.5094222,21.04605 L47.7086222,21.04605 C47.6264889,21.04605 47.5648889,21.0871167 47.5238222,21.16925 L47.5238222,21.16925 L44.9520222,25.77385 C44.9417556,25.7943834 44.9263556,25.80465 44.9058222,25.80465 C44.8852889,25.80465 44.8750222,25.7943834 44.8750222,25.77385 L44.8750222,25.77385 L43.4274222,21.16925 C43.4171556,21.0871167 43.3709556,21.04605 43.2888222,21.04605 L43.2888222,21.04605 L42.4726222,21.04605 C42.3699556,21.04605 42.3186222,21.09225 42.3186222,21.18465 L42.3186222,21.18465 L42.3340222,21.23085 L44.2128222,26.99045 C44.2230889,27.0007167 44.2256556,27.01355 44.2205222,27.02895 C44.2153889,27.04435 44.2128222,27.0571834 44.2128222,27.06745 L44.2128222,27.06745 L43.6584222,31.65665 C43.6378889,31.7593167 43.6789556,31.81065 43.7816222,31.81065 L43.7816222,31.81065 L44.5516222,31.81065 Z M54.2745925,31.82605 C54.3669925,31.82605 54.4234591,31.7747167 54.4439925,31.67205 L54.4439925,31.67205 L54.5209925,31.02525 C54.5312591,30.9841834 54.5235591,30.94825 54.4978925,30.91745 C54.4722258,30.88665 54.4337258,30.87125 54.3823925,30.87125 L54.3823925,30.87125 L49.9009925,30.87125 C49.8907258,30.87125 49.8804591,30.8661167 49.8701925,30.85585 C49.8599258,30.8455834 49.8547925,30.8301834 49.8547925,30.80965 L49.8547925,30.80965 L50.3321925,26.95965 C50.3321925,26.9185834 50.3527258,26.89805 50.3937925,26.89805 L50.3937925,26.89805 L53.4121925,26.89805 C53.5045925,26.89805 53.5610591,26.8467167 53.5815925,26.74405 L53.5815925,26.74405 L53.6585925,26.09725 C53.6791258,25.9945834 53.6380591,25.94325 53.5353925,25.94325 L53.5353925,25.94325 L50.5169925,25.94325 C50.4759258,25.94325 50.4553925,25.9227167 50.4553925,25.88165 L50.4553925,25.88165 L50.9327925,22.06245 C50.9327925,22.0213834 50.9533258,22.00085 50.9943925,22.00085 L50.9943925,22.00085 L55.4757925,22.00085 C55.5681925,22.00085 55.6246591,21.9495167 55.6451925,21.84685 L55.6451925,21.84685 L55.7221925,21.20005 C55.7427258,21.0973834 55.7016591,21.04605 55.5989925,21.04605 L55.5989925,21.04605 L50.1473925,21.04605 C50.0549925,21.04605 49.9985258,21.0973834 49.9779925,21.20005 L49.9779925,21.20005 L48.6843925,31.67205 C48.6843925,31.7747167 48.7305925,31.82605 48.8229925,31.82605 L48.8229925,31.82605 L54.2745925,31.82605 Z M56.4515627,31.82605 C56.533696,31.82605 56.595296,31.77985 56.6363627,31.68745 L56.6363627,31.68745 L57.3601627,29.76245 C57.380696,29.73165 57.4063627,29.71625 57.4371627,29.71625 L57.4371627,29.71625 L61.0099627,29.71625 C61.0510293,29.71625 61.076696,29.73165 61.0869627,29.76245 L61.0869627,29.76245 L61.3333627,31.68745 C61.353896,31.77985 61.4052293,31.82605 61.4873627,31.82605 L61.4873627,31.82605 L62.2727627,31.82605 C62.3754293,31.82605 62.4267627,31.7849834 62.4267627,31.70285 L62.4267627,31.70285 L62.4267627,31.65665 L60.9329627,21.18465 C60.9124293,21.09225 60.861096,21.04605 60.7789627,21.04605 L60.7789627,21.04605 L59.8241627,21.04605 C59.7420293,21.04605 59.6804293,21.09225 59.6393627,21.18465 L59.6393627,21.18465 L55.5583627,31.65665 C55.5378293,31.7079834 55.540396,31.74905 55.5660627,31.77985 C55.5917293,31.81065 55.6302293,31.82605 55.6815627,31.82605 L55.6815627,31.82605 L56.4515627,31.82605 Z M60.8867627,28.82305 L57.7913627,28.82305 C57.7708293,28.82305 57.7554293,28.81535 57.7451627,28.79995 C57.734896,28.78455 57.734896,28.7717167 57.7451627,28.76145 L57.7451627,28.76145 L60.0705627,22.57065 C60.0808293,22.5501167 60.091096,22.53985 60.1013627,22.53985 C60.1116293,22.53985 60.121896,22.5501167 60.1321627,22.57065 L60.1321627,22.57065 L60.9483627,28.76145 C60.9586293,28.7717167 60.9560627,28.78455 60.9406627,28.79995 C60.9252627,28.81535 60.907296,28.82305 60.8867627,28.82305 L60.8867627,28.82305 Z M64.7577329,31.82605 C64.8501329,31.82605 64.9065996,31.7747167 64.9271329,31.67205 L64.9271329,31.67205 L65.5123329,26.95965 C65.5123329,26.9185834 65.5328662,26.89805 65.5739329,26.89805 L65.5739329,26.89805 L67.4989329,26.89805 C67.5297329,26.89805 67.5502662,26.91345 67.5605329,26.94425 L67.5605329,26.94425 L68.8233329,31.70285 C68.8335996,31.7849834 68.8849329,31.82605 68.9773329,31.82605 L68.9773329,31.82605 L69.7627329,31.82605 C69.8653996,31.82605 69.9167329,31.7849834 69.9167329,31.70285 C69.9167329,31.67205 69.9115996,31.6515167 69.9013329,31.64125 L69.9013329,31.64125 L68.5615329,26.86725 C68.5615329,26.8261834 68.5769329,26.8005167 68.6077329,26.79025 C69.1929329,26.6259834 69.6805996,26.29745 70.0707329,25.80465 C70.4608662,25.31185 70.6969996,24.7163834 70.7791329,24.01825 C70.7996662,23.7923834 70.8099329,23.6281167 70.8099329,23.52545 C70.8099329,22.7759834 70.5994662,22.1753834 70.1785329,21.72365 C69.7575996,21.2719167 69.1929329,21.04605 68.4845329,21.04605 L68.4845329,21.04605 L65.3275329,21.04605 C65.2351329,21.04605 65.1786662,21.0973834 65.1581329,21.20005 L65.1581329,21.20005 L63.8645329,31.67205 C63.8645329,31.7747167 63.9107329,31.82605 64.0031329,31.82605 L64.0031329,31.82605 L64.7577329,31.82605 Z M67.7453329,26.02025 L65.6817329,26.02025 C65.6509329,26.02025 65.6355329,25.9997167 65.6355329,25.95865 L65.6355329,25.95865 L66.1129329,22.06245 C66.1129329,22.0213834 66.1334662,22.00085 66.1745329,22.00085 L66.1745329,22.00085 L68.2381329,22.00085 C68.7001329,22.00085 69.0671662,22.1497167 69.3392329,22.44745 C69.6112996,22.7451834 69.7473329,23.1455834 69.7473329,23.64865 C69.7473329,24.3467834 69.5573996,24.9165834 69.1775329,25.35805 C68.7976662,25.7995167 68.3202662,26.02025 67.7453329,26.02025 L67.7453329,26.02025 Z M71.5701031,33.04265 C71.6522364,33.04265 71.7138364,32.99645 71.7549031,32.90405 L71.7549031,32.90405 L72.9099031,29.60845 C72.9304364,29.5571167 72.9304364,29.51605 72.9099031,29.48525 C72.8893698,29.45445 72.8534364,29.43905 72.8021031,29.43905 L72.8021031,29.43905 L72.1399031,29.43905 C72.0475031,29.43905 71.9859031,29.48525 71.9551031,29.57765 L71.9551031,29.57765 L71.0003031,32.87325 C70.9797698,32.9245834 70.9797698,32.96565 71.0003031,32.99645 C71.0208364,33.02725 71.0567698,33.04265 71.1081031,33.04265 L71.1081031,33.04265 L71.5701031,33.04265 Z" id="NEWYEAR," fill="#632F87" fill-rule="nonzero" transform="translate(42.318622, 27.044350) rotate(-9.000000) translate(-42.318622, -27.044350) "></path>
                <path d="M13.7051414,30.72605 C13.7975414,30.72605 13.854008,30.6747167 13.8745414,30.57205 L13.8745414,30.57205 L14.8601414,22.39465 C14.870408,22.36385 14.8832414,22.34845 14.8986414,22.34845 C14.9140414,22.34845 14.9268747,22.3587167 14.9371414,22.37925 L14.9371414,22.37925 L17.9401414,30.61825 C17.950408,30.6901167 18.0017414,30.72605 18.0941414,30.72605 L18.0941414,30.72605 L18.9103414,30.72605 C19.0027414,30.72605 19.059208,30.6747167 19.0797414,30.57205 L19.0797414,30.57205 L20.3579414,20.10005 C20.3784747,19.9973834 20.337408,19.94605 20.2347414,19.94605 L20.2347414,19.94605 L19.4647414,19.94605 C19.3723414,19.94605 19.3158747,19.9973834 19.2953414,20.10005 L19.2953414,20.10005 L18.3097414,28.30825 C18.289208,28.36985 18.2635414,28.3749834 18.2327414,28.32365 L18.2327414,28.32365 L15.2451414,20.05385 C15.2348747,19.9819834 15.178408,19.94605 15.0757414,19.94605 L15.0757414,19.94605 L14.2749414,19.94605 C14.1825414,19.94605 14.1260747,19.9973834 14.1055414,20.10005 L14.1055414,20.10005 L12.8119414,30.57205 C12.8119414,30.6747167 12.8581414,30.72605 12.9505414,30.72605 L12.9505414,30.72605 L13.7051414,30.72605 Z M26.8623116,30.72605 C26.9547116,30.72605 27.0111783,30.6747167 27.0317116,30.57205 L27.0317116,30.57205 L27.1087116,29.92525 C27.1189783,29.8841834 27.1112783,29.84825 27.0856116,29.81745 C27.0599449,29.78665 27.0214449,29.77125 26.9701116,29.77125 L26.9701116,29.77125 L22.4887116,29.77125 C22.4784449,29.77125 22.4681783,29.7661167 22.4579116,29.75585 C22.4476449,29.7455834 22.4425116,29.7301834 22.4425116,29.70965 L22.4425116,29.70965 L22.9199116,25.85965 C22.9199116,25.8185834 22.9404449,25.79805 22.9815116,25.79805 L22.9815116,25.79805 L25.9999116,25.79805 C26.0923116,25.79805 26.1487783,25.7467167 26.1693116,25.64405 L26.1693116,25.64405 L26.2463116,24.99725 C26.2668449,24.8945834 26.2257783,24.84325 26.1231116,24.84325 L26.1231116,24.84325 L23.1047116,24.84325 C23.0636449,24.84325 23.0431116,24.8227167 23.0431116,24.78165 L23.0431116,24.78165 L23.5205116,20.96245 C23.5205116,20.9213834 23.5410449,20.90085 23.5821116,20.90085 L23.5821116,20.90085 L28.0635116,20.90085 C28.1559116,20.90085 28.2123783,20.8495167 28.2329116,20.74685 L28.2329116,20.74685 L28.3099116,20.10005 C28.3304449,19.9973834 28.2893783,19.94605 28.1867116,19.94605 L28.1867116,19.94605 L22.7351116,19.94605 C22.6427116,19.94605 22.5862449,19.9973834 22.5657116,20.10005 L22.5657116,20.10005 L21.2721116,30.57205 C21.2721116,30.6747167 21.3183116,30.72605 21.4107116,30.72605 L21.4107116,30.72605 L26.8623116,30.72605 Z M31.4262818,30.72605 C31.5186818,30.72605 31.5802818,30.67985 31.6110818,30.58745 L31.6110818,30.58745 L34.3214818,22.19445 C34.3420151,22.16365 34.3574151,22.14825 34.3676818,22.14825 C34.3779485,22.14825 34.3830818,22.16365 34.3830818,22.19445 L34.3830818,22.19445 L35.0606818,30.58745 C35.0606818,30.67985 35.1120151,30.72605 35.2146818,30.72605 L35.2146818,30.72605 L35.9692818,30.72605 C36.0514151,30.72605 36.1130151,30.67985 36.1540818,30.58745 L36.1540818,30.58745 L39.7730818,20.11545 C39.7936151,20.0025167 39.7576818,19.94605 39.6652818,19.94605 L39.6652818,19.94605 L38.8952818,19.94605 C38.8028818,19.94605 38.7412818,19.99225 38.7104818,20.08465 L38.7104818,20.08465 L35.9230818,28.35445 C35.9128151,28.38525 35.8999818,28.40065 35.8845818,28.40065 C35.8691818,28.40065 35.8614818,28.38525 35.8614818,28.35445 L35.8614818,28.35445 L35.1530818,20.08465 C35.1530818,19.99225 35.1068818,19.94605 35.0144818,19.94605 L35.0144818,19.94605 L34.2598818,19.94605 C34.1674818,19.94605 34.1058818,19.99225 34.0750818,20.08465 L34.0750818,20.08465 L31.4108818,28.35445 C31.4006151,28.38525 31.3852151,28.40065 31.3646818,28.40065 C31.3441485,28.40065 31.3338818,28.38525 31.3338818,28.35445 L31.3338818,28.35445 L30.5176818,20.08465 C30.5176818,19.99225 30.4714818,19.94605 30.3790818,19.94605 L30.3790818,19.94605 L29.5628818,19.94605 C29.5218151,19.94605 29.4884485,19.9588834 29.4627818,19.98455 C29.4371151,20.0102167 29.4242818,20.0435834 29.4242818,20.08465 L29.4242818,20.08465 L29.4242818,20.11545 L30.5484818,30.58745 C30.5484818,30.6285167 30.5638818,30.6618834 30.5946818,30.68755 C30.6254818,30.7132167 30.6614151,30.72605 30.7024818,30.72605 L30.7024818,30.72605 L31.4262818,30.72605 Z M45.6516222,30.71065 C45.6926889,30.71065 45.7286222,30.69525 45.7594222,30.66445 C45.7902222,30.63365 45.8056222,30.5977167 45.8056222,30.55665 L45.8056222,30.55665 L46.3754222,25.96745 C46.3754222,25.93665 46.3856889,25.9109834 46.4062222,25.89045 L46.4062222,25.89045 L49.7018222,20.13085 C49.7326222,20.0795167 49.7377556,20.0358834 49.7172222,19.99995 C49.6966889,19.9640167 49.6607556,19.94605 49.6094222,19.94605 L49.6094222,19.94605 L48.8086222,19.94605 C48.7264889,19.94605 48.6648889,19.9871167 48.6238222,20.06925 L48.6238222,20.06925 L46.0520222,24.67385 C46.0417556,24.6943834 46.0263556,24.70465 46.0058222,24.70465 C45.9852889,24.70465 45.9750222,24.6943834 45.9750222,24.67385 L45.9750222,24.67385 L44.5274222,20.06925 C44.5171556,19.9871167 44.4709556,19.94605 44.3888222,19.94605 L44.3888222,19.94605 L43.5726222,19.94605 C43.4699556,19.94605 43.4186222,19.99225 43.4186222,20.08465 L43.4186222,20.08465 L43.4340222,20.13085 L45.3128222,25.89045 C45.3230889,25.9007167 45.3256556,25.91355 45.3205222,25.92895 C45.3153889,25.94435 45.3128222,25.9571834 45.3128222,25.96745 L45.3128222,25.96745 L44.7584222,30.55665 C44.7378889,30.6593167 44.7789556,30.71065 44.8816222,30.71065 L44.8816222,30.71065 L45.6516222,30.71065 Z M55.3745925,30.72605 C55.4669925,30.72605 55.5234591,30.6747167 55.5439925,30.57205 L55.5439925,30.57205 L55.6209925,29.92525 C55.6312591,29.8841834 55.6235591,29.84825 55.5978925,29.81745 C55.5722258,29.78665 55.5337258,29.77125 55.4823925,29.77125 L55.4823925,29.77125 L51.0009925,29.77125 C50.9907258,29.77125 50.9804591,29.7661167 50.9701925,29.75585 C50.9599258,29.7455834 50.9547925,29.7301834 50.9547925,29.70965 L50.9547925,29.70965 L51.4321925,25.85965 C51.4321925,25.8185834 51.4527258,25.79805 51.4937925,25.79805 L51.4937925,25.79805 L54.5121925,25.79805 C54.6045925,25.79805 54.6610591,25.7467167 54.6815925,25.64405 L54.6815925,25.64405 L54.7585925,24.99725 C54.7791258,24.8945834 54.7380591,24.84325 54.6353925,24.84325 L54.6353925,24.84325 L51.6169925,24.84325 C51.5759258,24.84325 51.5553925,24.8227167 51.5553925,24.78165 L51.5553925,24.78165 L52.0327925,20.96245 C52.0327925,20.9213834 52.0533258,20.90085 52.0943925,20.90085 L52.0943925,20.90085 L56.5757925,20.90085 C56.6681925,20.90085 56.7246591,20.8495167 56.7451925,20.74685 L56.7451925,20.74685 L56.8221925,20.10005 C56.8427258,19.9973834 56.8016591,19.94605 56.6989925,19.94605 L56.6989925,19.94605 L51.2473925,19.94605 C51.1549925,19.94605 51.0985258,19.9973834 51.0779925,20.10005 L51.0779925,20.10005 L49.7843925,30.57205 C49.7843925,30.6747167 49.8305925,30.72605 49.9229925,30.72605 L49.9229925,30.72605 L55.3745925,30.72605 Z M57.5515627,30.72605 C57.633696,30.72605 57.695296,30.67985 57.7363627,30.58745 L57.7363627,30.58745 L58.4601627,28.66245 C58.480696,28.63165 58.5063627,28.61625 58.5371627,28.61625 L58.5371627,28.61625 L62.1099627,28.61625 C62.1510293,28.61625 62.176696,28.63165 62.1869627,28.66245 L62.1869627,28.66245 L62.4333627,30.58745 C62.453896,30.67985 62.5052293,30.72605 62.5873627,30.72605 L62.5873627,30.72605 L63.3727627,30.72605 C63.4754293,30.72605 63.5267627,30.6849834 63.5267627,30.60285 L63.5267627,30.60285 L63.5267627,30.55665 L62.0329627,20.08465 C62.0124293,19.99225 61.961096,19.94605 61.8789627,19.94605 L61.8789627,19.94605 L60.9241627,19.94605 C60.8420293,19.94605 60.7804293,19.99225 60.7393627,20.08465 L60.7393627,20.08465 L56.6583627,30.55665 C56.6378293,30.6079834 56.640396,30.64905 56.6660627,30.67985 C56.6917293,30.71065 56.7302293,30.72605 56.7815627,30.72605 L56.7815627,30.72605 L57.5515627,30.72605 Z M61.9867627,27.72305 L58.8913627,27.72305 C58.8708293,27.72305 58.8554293,27.71535 58.8451627,27.69995 C58.834896,27.68455 58.834896,27.6717167 58.8451627,27.66145 L58.8451627,27.66145 L61.1705627,21.47065 C61.1808293,21.4501167 61.191096,21.43985 61.2013627,21.43985 C61.2116293,21.43985 61.221896,21.4501167 61.2321627,21.47065 L61.2321627,21.47065 L62.0483627,27.66145 C62.0586293,27.6717167 62.0560627,27.68455 62.0406627,27.69995 C62.0252627,27.71535 62.007296,27.72305 61.9867627,27.72305 L61.9867627,27.72305 Z M65.8577329,30.72605 C65.9501329,30.72605 66.0065996,30.6747167 66.0271329,30.57205 L66.0271329,30.57205 L66.6123329,25.85965 C66.6123329,25.8185834 66.6328662,25.79805 66.6739329,25.79805 L66.6739329,25.79805 L68.5989329,25.79805 C68.6297329,25.79805 68.6502662,25.81345 68.6605329,25.84425 L68.6605329,25.84425 L69.9233329,30.60285 C69.9335996,30.6849834 69.9849329,30.72605 70.0773329,30.72605 L70.0773329,30.72605 L70.8627329,30.72605 C70.9653996,30.72605 71.0167329,30.6849834 71.0167329,30.60285 C71.0167329,30.57205 71.0115996,30.5515167 71.0013329,30.54125 L71.0013329,30.54125 L69.6615329,25.76725 C69.6615329,25.7261834 69.6769329,25.7005167 69.7077329,25.69025 C70.2929329,25.5259834 70.7805996,25.19745 71.1707329,24.70465 C71.5608662,24.21185 71.7969996,23.6163834 71.8791329,22.91825 C71.8996662,22.6923834 71.9099329,22.5281167 71.9099329,22.42545 C71.9099329,21.6759834 71.6994662,21.0753834 71.2785329,20.62365 C70.8575996,20.1719167 70.2929329,19.94605 69.5845329,19.94605 L69.5845329,19.94605 L66.4275329,19.94605 C66.3351329,19.94605 66.2786662,19.9973834 66.2581329,20.10005 L66.2581329,20.10005 L64.9645329,30.57205 C64.9645329,30.6747167 65.0107329,30.72605 65.1031329,30.72605 L65.1031329,30.72605 L65.8577329,30.72605 Z M68.8453329,24.92025 L66.7817329,24.92025 C66.7509329,24.92025 66.7355329,24.8997167 66.7355329,24.85865 L66.7355329,24.85865 L67.2129329,20.96245 C67.2129329,20.9213834 67.2334662,20.90085 67.2745329,20.90085 L67.2745329,20.90085 L69.3381329,20.90085 C69.8001329,20.90085 70.1671662,21.0497167 70.4392329,21.34745 C70.7112996,21.6451834 70.8473329,22.0455834 70.8473329,22.54865 C70.8473329,23.2467834 70.6573996,23.8165834 70.2775329,24.25805 C69.8976662,24.6995167 69.4202662,24.92025 68.8453329,24.92025 L68.8453329,24.92025 Z M72.6701031,31.94265 C72.7522364,31.94265 72.8138364,31.89645 72.8549031,31.80405 L72.8549031,31.80405 L74.0099031,28.50845 C74.0304364,28.4571167 74.0304364,28.41605 74.0099031,28.38525 C73.9893698,28.35445 73.9534364,28.33905 73.9021031,28.33905 L73.9021031,28.33905 L73.2399031,28.33905 C73.1475031,28.33905 73.0859031,28.38525 73.0551031,28.47765 L73.0551031,28.47765 L72.1003031,31.77325 C72.0797698,31.8245834 72.0797698,31.86565 72.1003031,31.89645 C72.1208364,31.92725 72.1567698,31.94265 72.2081031,31.94265 L72.2081031,31.94265 L72.6701031,31.94265 Z" id="NEWYEAR," fill="#FFFFFF" fill-rule="nonzero" transform="translate(43.418622, 25.944350) rotate(-9.000000) translate(-43.418622, -25.944350) "></path>
                <g id="balan" transform="translate(9.700000, 0.200000)"></g>
            </g>
        </g>
    </g>
</svg>